# Blender v2.79 (sub 0) OBJ File: 'simpleBush1.blend'
# www.blender.org
o Icosphere
v -0.004567 -0.844987 0.039027
v 0.723607 -0.447220 0.525725
v -0.337721 -0.314735 0.845908
v -0.894426 -0.447216 0.000000
v -0.336541 -0.398509 -0.743930
v 0.750284 -0.370122 -0.598701
v 0.160073 0.367109 0.781167
v -0.842997 0.422703 0.343812
v -0.928374 0.359227 -0.429960
v 0.085294 0.532756 -0.799280
v 0.813085 0.337469 -0.192923
v 0.000000 1.172671 0.000000
v -0.162456 -0.850654 0.499995
v 0.425323 -0.636284 0.309011
v 0.262869 -0.525738 0.809012
v 0.582517 -0.563351 -0.167438
v 0.425323 -0.850654 -0.309011
v -0.525730 -0.850652 0.000000
v -0.688189 -0.525736 0.499997
v -0.162456 -0.850654 -0.499995
v -0.688189 -0.525736 -0.499997
v 0.333625 -0.661596 -0.586688
v 0.862492 -0.097733 0.020329
v 0.951058 0.000000 -0.309013
v -0.120013 0.201457 0.985692
v 0.277161 0.056480 0.793592
v -0.782210 0.148934 0.217014
v -0.587786 0.000000 0.809017
v -0.404378 0.109543 -0.889362
v -0.845925 0.013999 -0.524598
v 0.251742 0.194561 -0.897290
v -0.139176 0.186776 -0.891330
v 0.542780 0.386180 0.384090
v -0.214475 0.685521 0.640191
v -0.850648 0.525736 0.000000
v -0.458269 0.630952 -0.684191
v 0.552346 0.409770 -0.517867
v -0.067197 0.859056 0.300013
v 0.513974 0.729250 -0.217712
v -0.585054 0.728785 0.161146
v -0.554749 0.851634 -0.346803
v -0.003351 0.945876 -0.635976
vt 0.233945 0.222825
vt 0.293260 0.185573
vt 0.212159 0.159222
vt 0.334417 0.155672
vt 0.314950 0.251313
vt 0.162035 0.228210
vt 0.212159 0.297199
vt 0.293260 0.270847
vt 0.162036 0.166504
vt 0.257678 0.150480
vt 0.231770 0.214725
vt 0.187977 0.184784
vt 0.270845 0.155670
vt 0.218016 0.256007
vt 0.234575 0.166504
vt 0.165586 0.155670
vt 0.204631 0.248760
vt 0.188139 0.173225
vt 0.139619 0.155670
vt 0.178779 0.243325
vt 0.338098 0.177141
vt 0.280608 0.136924
vt 0.269310 0.255056
vt 0.125076 0.236003
vt 0.153473 0.228210
vt 0.306958 0.230142
vt 0.215371 0.253981
vt 0.365800 0.228210
vt 0.256661 0.120426
vt 0.309467 0.175214
vt 0.225303 0.186815
vt 0.118259 0.180772
vt 0.204982 0.139878
vt 0.153850 0.205976
vt 0.293900 0.277776
vt 0.234575 0.300751
vt 0.282426 0.345718
vt 0.246344 0.301719
vt 0.171343 0.315268
vt 0.234112 0.358721
vt 0.261194 0.274774
vt 0.306029 0.284750
vt 0.264614 0.328831
vt 0.305492 0.258250
vt 0.234112 0.315961
vt 0.234575 0.228210
vt 0.322326 0.358721
vt 0.310787 0.284750
vt 0.158031 0.276062
vt 0.171343 0.322614
vt 0.328978 0.315268
vt 0.117203 0.228210
vt 0.193179 0.346742
vt 0.234575 0.390014
vt 0.181578 0.281495
vt 0.277212 0.228210
vt 0.106479 0.277776
vt 0.187136 0.286534
vt 0.204982 0.322798
vt 0.118259 0.286534
vt 0.256661 0.278864
vt 0.126790 0.278864
vt 0.117855 0.230142
vt 0.303564 0.155670
vt 0.122948 0.228210
vt 0.139619 0.155670
vt 0.272817 0.236003
vt 0.334417 0.166504
vt 0.317183 0.177141
vt 0.280608 0.309161
vt 0.338098 0.310818
vt 0.212159 0.110838
vt 0.139619 0.297199
vt 0.234575 0.110839
vt 0.139619 0.159221
vt 0.212159 0.110838
vt 0.277212 0.110838
vt 0.191938 0.140417
vt 0.270845 0.116584
vn 0.1360 -0.9864 0.0926
vn 0.4454 -0.8712 0.2065
vn -0.0499 -0.8960 0.4413
vn 0.8096 -0.3551 0.4674
vn 0.8237 -0.5608 0.0842
vn -0.4466 -0.8947 0.0001
vn -0.1218 -0.8466 -0.5180
vn 0.4765 -0.8702 -0.1250
vn 0.9597 -0.0939 0.2648
vn -0.2870 -0.3747 0.8816
vn 0.3141 -0.5106 0.8003
vn -0.0140 0.2348 0.9719
vn -0.9502 -0.3070 0.0535
vn -0.7355 -0.4524 0.5043
vn -0.9805 -0.0941 0.1726
vn -0.1857 -0.3831 -0.9048
vn -0.6601 -0.5113 -0.5502
vn -0.2993 -0.0061 -0.9541
vn 0.7322 -0.3598 -0.5782
vn 0.2294 -0.5681 -0.7903
vn 0.3052 0.0904 -0.9480
vn 0.6016 0.1524 0.7841
vn -0.6720 0.0375 0.7396
vn -0.8805 -0.1010 -0.4632
vn -0.0272 0.0392 -0.9988
vn 0.9794 0.0334 -0.1990
vn 0.4810 0.4982 0.7214
vn 0.7253 0.4564 0.5153
vn 0.1501 0.8003 0.5806
vn -0.8964 0.2583 0.3602
vn -0.1181 0.7507 0.6500
vn -0.5511 0.7728 0.3146
vn -0.9510 0.1473 -0.2720
vn -0.9192 0.3803 0.1016
vn -0.5877 0.7725 -0.2405
vn 0.2101 0.3948 -0.8944
vn -0.4188 0.4718 -0.7758
vn 0.1259 0.7425 -0.6579
vn 0.8741 0.4849 -0.0265
vn 0.6629 0.4404 -0.6055
vn 0.7179 0.6936 -0.0598
vn 0.1487 0.9543 0.2590
s 1
f 1/1/1 14/2/2 13/3/3
f 2/4/4 14/2/2 16/5/5
f 1/1/1 13/3/3 18/6/6
f 1/1/1 18/6/6 20/7/7
f 1/1/1 20/7/7 17/8/8
f 2/9/4 16/10/5 23/11/9
f 3/12/10 15/13/11 25/14/12
f 4/15/13 19/16/14 27/17/15
f 5/18/16 21/19/17 29/20/18
f 6/21/19 22/22/20 31/23/21
f 2/9/4 23/11/9 26/24/22
f 3/12/10 25/14/12 28/25/23
f 4/15/13 27/17/15 30/26/24
f 5/18/16 29/20/18 32/27/25
f 6/21/19 31/23/21 24/28/26
f 7/29/27 33/30/28 38/31/29
f 8/32/30 34/33/31 40/34/32
f 9/35/33 35/36/34 41/37/35
f 10/38/36 36/39/37 42/40/38
f 11/41/39 37/42/40 39/43/41
f 39/44/41 42/45/38 12/46/42
f 39/43/41 37/42/40 42/47/38
f 37/48/40 10/38/36 42/40/38
f 42/45/38 41/49/35 12/46/42
f 42/45/38 36/50/37 41/49/35
f 36/51/37 9/35/33 41/37/35
f 41/49/35 40/34/32 12/46/42
f 41/49/35 35/52/34 40/34/32
f 35/52/34 8/32/30 40/34/32
f 40/34/32 38/31/29 12/46/42
f 40/34/32 34/33/31 38/31/29
f 34/33/31 7/29/27 38/31/29
f 38/53/29 39/43/41 12/54/42
f 38/31/29 33/30/28 39/44/41
f 33/55/28 11/41/39 39/43/41
f 24/56/26 37/42/40 11/41/39
f 24/28/26 31/23/21 37/48/40
f 31/23/21 10/38/36 37/48/40
f 32/27/25 36/39/37 10/38/36
f 32/27/25 29/20/18 36/39/37
f 29/20/18 9/57/33 36/39/37
f 30/26/24 35/36/34 9/35/33
f 30/26/24 27/17/15 35/36/34
f 27/17/15 8/58/30 35/36/34
f 28/25/23 34/59/31 8/60/30
f 28/25/23 25/14/12 34/59/31
f 25/14/12 7/61/27 34/59/31
f 26/24/22 33/55/28 7/62/27
f 26/24/22 23/11/9 33/55/28
f 23/11/9 11/41/39 33/55/28
f 31/23/21 32/27/25 10/38/36
f 31/23/21 22/22/20 32/27/25
f 22/22/20 5/18/16 32/27/25
f 29/20/18 30/63/24 9/57/33
f 29/20/18 21/19/17 30/63/24
f 21/64/17 4/15/13 30/26/24
f 27/17/15 28/65/23 8/58/30
f 27/17/15 19/16/14 28/65/23
f 19/66/14 3/12/10 28/25/23
f 25/14/12 26/67/22 7/61/27
f 25/14/12 15/13/11 26/67/22
f 15/13/11 2/68/4 26/67/22
f 23/11/9 24/56/26 11/41/39
f 23/11/9 16/10/5 24/56/26
f 16/10/5 6/69/19 24/56/26
f 17/8/8 22/70/20 6/71/19
f 17/8/8 20/7/7 22/70/20
f 20/72/7 5/18/16 22/22/20
f 20/72/7 21/19/17 5/18/16
f 20/7/7 18/6/6 21/73/17
f 18/74/6 4/15/13 21/64/17
f 18/74/6 19/16/14 4/15/13
f 18/6/6 13/3/3 19/75/14
f 13/76/3 3/12/10 19/66/14
f 16/10/5 17/77/8 6/69/19
f 16/10/5 14/78/2 17/77/8
f 14/2/2 1/1/1 17/8/8
f 13/76/3 15/13/11 3/12/10
f 13/3/3 14/2/2 15/79/11
f 14/2/2 2/4/4 15/79/11
