# Blender v2.79 (sub 0) OBJ File: 'simpleBush0.blend'
# www.blender.org
o Icosphere
v 0.000000 -1.000000 0.000000
v 0.723607 -0.447220 0.525725
v -0.337721 -0.314735 0.845908
v -0.894426 -0.447216 0.000000
v -0.169521 -0.319037 -0.886091
v 0.750284 -0.370122 -0.598701
v 0.581042 0.290912 0.922494
v -0.842997 0.422703 0.343812
v -0.928374 0.359227 -0.429960
v 0.085294 0.532756 -0.799280
v 0.894426 0.447216 0.000000
v 0.000000 1.000000 0.000000
v -0.162456 -0.850654 0.499995
v 0.425323 -0.636284 0.309011
v 0.262869 -0.525738 0.809012
v 0.582517 -0.563351 -0.167438
v 0.425323 -0.850654 -0.309011
v -0.525730 -0.850652 0.000000
v -0.688189 -0.525736 0.499997
v -0.162456 -0.850654 -0.499995
v -0.688189 -0.525736 -0.499997
v 0.333625 -0.661596 -0.586688
v 0.862492 -0.097733 0.020329
v 0.951058 0.000000 -0.309013
v -0.120013 0.201457 0.985692
v 0.696573 0.025181 0.931763
v -0.955451 -0.036186 0.445168
v -0.587786 0.000000 0.809017
v -0.404378 0.109543 -0.889362
v -1.000352 -0.146228 -0.394137
v 0.587786 0.000000 -0.809017
v -0.139176 0.186776 -0.891330
v 0.950854 0.312031 0.341421
v -0.214475 0.685521 0.640191
v -0.850648 0.525736 0.000000
v -0.458269 0.630952 -0.684191
v 0.727848 0.199867 -0.539960
v 0.223117 0.885762 0.319382
v 0.513974 0.729250 -0.217712
v -0.585054 0.728785 0.161146
v -0.425323 0.850654 -0.309011
v -0.003351 0.945876 -0.635976
vt 0.619300 0.650550
vt 0.814293 0.650550
vt 0.814293 0.845543
vt 0.619300 0.650550
vt 0.814293 0.845543
vt 0.814293 0.650550
vt 0.814293 0.845543
vt 0.814293 0.650550
vt 0.814293 0.845543
vt 0.814293 0.650550
vt 0.814293 0.845543
vt 0.814293 0.650550
vt 0.814293 0.845543
vt 0.619300 0.650550
vt 0.814293 0.650550
vt 0.814293 0.845543
vt 0.619300 0.650550
vt 0.814293 0.650550
vt 0.814293 0.845543
vt 0.619300 0.650550
vt 0.814293 0.650550
vt 0.814293 0.845543
vt 0.619300 0.650550
vt 0.814293 0.650550
vt 0.814293 0.845543
vt 0.814293 0.650550
vt 0.814293 0.845543
vt 0.814293 0.650550
vt 0.814293 0.845543
vt 0.814293 0.650550
vt 0.814293 0.845543
vt 0.814293 0.650550
vt 0.814293 0.845543
vt 0.814293 0.650550
vt 0.814293 0.845543
vt 0.619300 0.650550
vt 0.814293 0.650550
vt 0.814293 0.845543
vt 0.619300 0.650550
vt 0.814293 0.650550
vt 0.814293 0.845543
vt 0.619300 0.650550
vt 0.814293 0.650550
vt 0.814293 0.845543
vt 0.619300 0.650550
vt 0.814293 0.650550
vt 0.814293 0.845543
vt 0.619300 0.650550
vt 0.814293 0.650550
vt 0.814293 0.845543
vt 0.619300 0.650550
vt 0.814293 0.650550
vt 0.814293 0.845543
vt 0.619300 0.650550
vt 0.814293 0.650550
vt 0.619300 0.650550
vt 0.814293 0.650550
vt 0.619300 0.650550
vt 0.814293 0.650550
vt 0.619300 0.650550
vt 0.814293 0.650550
vt 0.619300 0.650550
vt 0.814293 0.650550
vt 0.619300 0.650550
vt 0.814293 0.650550
vt 0.619300 0.650550
vt 0.814293 0.650550
vt 0.619300 0.650550
vt 0.814293 0.650550
vt 0.619300 0.650550
vt 0.814293 0.650550
vt 0.619300 0.650550
vt 0.814293 0.845543
vt 0.814293 0.845543
vt 0.619300 0.650550
vt 0.619300 0.650550
vt 0.814293 0.845543
vt 0.814293 0.845543
vt 0.619300 0.650550
vt 0.619300 0.650550
vt 0.814293 0.845543
vt 0.814293 0.845543
vt 0.619300 0.650550
vt 0.619300 0.650550
vt 0.814293 0.845543
vt 0.814293 0.845543
vt 0.619300 0.650550
vt 0.619300 0.650550
vt 0.814293 0.845543
vt 0.814293 0.845543
vt 0.619300 0.650550
vt 0.814293 0.650550
vt 0.619300 0.650550
vt 0.814293 0.650550
vt 0.814293 0.650550
vt 0.619300 0.650550
vt 0.814293 0.650550
vt 0.814293 0.650550
vt 0.619300 0.650550
vt 0.814293 0.650550
vt 0.814293 0.650550
vt 0.619300 0.650550
vt 0.814293 0.650550
vt 0.814293 0.650550
vt 0.619300 0.650550
vt 0.814293 0.650550
vt 0.619300 0.650550
vt 0.814293 0.845543
vt 0.814293 0.845543
vt 0.619300 0.650550
vt 0.814293 0.845543
vt 0.814293 0.845543
vt 0.619300 0.650550
vt 0.814293 0.845543
vt 0.814293 0.845543
vt 0.619300 0.650550
vt 0.814293 0.650550
vt 0.619300 0.650550
vt 0.814293 0.650550
vt 0.814293 0.845543
vt 0.814293 0.845543
vn 0.1017 -0.9920 0.0739
vn 0.4873 -0.8406 0.2363
vn -0.0780 -0.8519 0.5178
vn 0.7535 -0.5884 0.2932
vn 0.8237 -0.5608 0.0842
vn -0.5257 -0.8506 0.0000
vn -0.1553 -0.8159 -0.5568
vn 0.5376 -0.8242 -0.1777
vn 0.9446 -0.3188 0.0779
vn -0.2870 -0.3747 0.8816
vn 0.2055 -0.6253 0.7528
vn -0.1762 0.2081 0.9621
vn -0.8586 -0.5114 0.0337
vn -0.6421 -0.5637 0.5194
vn -0.9043 -0.0227 0.4263
vn 0.0018 -0.2925 -0.9562
vn -0.6086 -0.5586 -0.5635
vn -0.3530 0.0548 -0.9340
vn 0.7348 -0.4380 -0.5179
vn 0.2591 -0.5863 -0.7675
vn 0.4585 0.0407 -0.8877
vn 0.6152 -0.1047 0.7814
vn -0.5590 0.0544 0.8273
vn -0.9089 -0.1645 -0.3830
vn 0.0358 0.1203 -0.9921
vn 0.9796 -0.0599 -0.1917
vn 0.3965 0.4702 0.7885
vn 0.9398 0.2700 0.2096
vn 0.2568 0.9033 0.3438
vn -0.7749 0.4830 0.4075
vn -0.2470 0.7431 0.6219
vn -0.5051 0.8275 0.2451
vn -0.8586 0.3490 -0.3754
vn -0.8319 0.5534 0.0410
vn -0.4937 0.8557 -0.1547
vn 0.2013 0.3565 -0.9123
vn -0.4491 0.5332 -0.7168
vn 0.0928 0.8128 -0.5751
vn 0.8342 0.5480 -0.0618
vn 0.7091 0.4167 -0.5687
vn 0.6176 0.7567 -0.2143
vn 0.0104 0.9901 0.1396
s 1
f 1/1/1 14/2/2 13/3/3
f 2/4/4 14/2/2 16/5/5
f 1/1/1 13/6/3 18/7/6
f 1/1/1 18/8/6 20/9/7
f 1/1/1 20/10/7 17/11/8
f 2/4/4 16/12/5 23/13/9
f 3/14/10 15/15/11 25/16/12
f 4/17/13 19/18/14 27/19/15
f 5/20/16 21/21/17 29/22/18
f 6/23/19 22/24/20 31/25/21
f 2/4/4 23/26/9 26/27/22
f 3/14/10 25/28/12 28/29/23
f 4/17/13 27/30/15 30/31/24
f 5/20/16 29/32/18 32/33/25
f 6/23/19 31/34/21 24/35/26
f 7/36/27 33/37/28 38/38/29
f 8/39/30 34/40/31 40/41/32
f 9/42/33 35/43/34 41/44/35
f 10/45/36 36/46/37 42/47/38
f 11/48/39 37/49/40 39/50/41
f 39/51/41 42/52/38 12/53/42
f 39/51/41 37/49/40 42/47/38
f 37/54/40 10/55/36 42/47/38
f 42/56/38 41/57/35 12/53/42
f 42/56/38 36/46/37 41/44/35
f 36/58/37 9/59/33 41/44/35
f 41/60/35 40/61/32 12/53/42
f 41/60/35 35/43/34 40/41/32
f 35/62/34 8/63/30 40/41/32
f 40/64/32 38/65/29 12/53/42
f 40/64/32 34/40/31 38/38/29
f 34/66/31 7/67/27 38/38/29
f 38/68/29 39/69/41 12/53/42
f 38/68/29 33/37/28 39/50/41
f 33/70/28 11/71/39 39/50/41
f 24/72/26 37/49/40 11/73/39
f 24/72/26 31/34/21 37/74/40
f 31/75/21 10/55/36 37/74/40
f 32/76/25 36/46/37 10/77/36
f 32/76/25 29/32/18 36/78/37
f 29/79/18 9/59/33 36/78/37
f 30/80/24 35/43/34 9/81/33
f 30/80/24 27/30/15 35/82/34
f 27/83/15 8/63/30 35/82/34
f 28/84/23 34/40/31 8/85/30
f 28/84/23 25/28/12 34/86/31
f 25/87/12 7/67/27 34/86/31
f 26/88/22 33/37/28 7/89/27
f 26/88/22 23/26/9 33/90/28
f 23/91/9 11/71/39 33/90/28
f 31/75/21 32/92/25 10/77/36
f 31/75/21 22/24/20 32/33/25
f 22/93/20 5/94/16 32/33/25
f 29/79/18 30/95/24 9/81/33
f 29/79/18 21/21/17 30/31/24
f 21/96/17 4/97/13 30/31/24
f 27/83/15 28/98/23 8/85/30
f 27/83/15 19/18/14 28/29/23
f 19/99/14 3/100/10 28/29/23
f 25/87/12 26/101/22 7/89/27
f 25/87/12 15/15/11 26/27/22
f 15/102/11 2/103/4 26/27/22
f 23/91/9 24/104/26 11/73/39
f 23/91/9 16/12/5 24/35/26
f 16/105/5 6/106/19 24/35/26
f 17/107/8 22/24/20 6/108/19
f 17/107/8 20/10/7 22/109/20
f 20/110/7 5/94/16 22/109/20
f 20/110/7 21/21/17 5/111/16
f 20/110/7 18/8/6 21/112/17
f 18/113/6 4/97/13 21/112/17
f 18/113/6 19/18/14 4/114/13
f 18/113/6 13/6/3 19/115/14
f 13/116/3 3/100/10 19/115/14
f 16/105/5 17/117/8 6/108/19
f 16/105/5 14/2/2 17/11/8
f 14/118/2 1/119/1 17/11/8
f 13/116/3 15/15/11 3/120/10
f 13/116/3 14/2/2 15/121/11
f 14/118/2 2/103/4 15/121/11
